<svg xmlns="http://www.w3.org/2000/svg" width="500" height="500" fill="none" viewBox="0 0 500 500"><path stroke="url(#paint0_linear)" stroke-dasharray="12.06 12.06" stroke-miterlimit="10" stroke-width="2" d="M252.837 466.948C355.247 466.948 438.267 383.928 438.267 281.518C438.267 179.109 355.247 96.089 252.837 96.089C150.428 96.089 67.408 179.109 67.408 281.518C67.408 383.928 150.428 466.948 252.837 466.948Z"/><path stroke="url(#paint1_linear)" stroke-dasharray="11.94 11.94" stroke-miterlimit="10" stroke-width="2" d="M252.837 447.623C344.574 447.623 418.942 373.255 418.942 281.518C418.942 189.781 344.574 115.414 252.837 115.414C161.1 115.414 86.7331 189.781 86.7331 281.518C86.7331 373.255 161.1 447.623 252.837 447.623Z"/><path fill="url(#paint2_linear)" d="M227.761 466.948H133.282C125.614 466.948 119.402 460.736 119.402 453.067V273.006C119.402 265.337 125.614 259.126 133.282 259.126H227.761C235.429 259.126 241.641 265.337 241.641 273.006V453.144C241.641 460.736 235.429 466.948 227.761 466.948Z"/><path fill="#fff" d="M121.932 445.936L136.12 288.267H259.586L121.932 445.936Z"/><path fill="url(#paint3_linear)" d="M355.751 469.723H129.755C123.543 469.723 118.865 464.048 120.092 457.913L153.758 290.199C154.678 285.598 158.742 282.3 163.42 282.3H389.417C395.629 282.3 400.307 287.975 399.08 294.11L365.414 461.824C364.494 466.426 360.429 469.723 355.751 469.723Z"/><path fill="url(#paint4_linear)" d="M92.408 231.135C118.667 231.135 139.954 209.848 139.954 183.589C139.954 157.33 118.667 136.043 92.408 136.043C66.149 136.043 44.8619 157.33 44.8619 183.589C44.8619 209.848 66.149 231.135 92.408 231.135Z"/><path fill="url(#paint5_linear)" d="M257.055 128.144C283.314 128.144 304.601 106.857 304.601 80.5982C304.601 54.3394 283.314 33.0522 257.055 33.0522C230.796 33.0522 209.509 54.3394 209.509 80.5982C209.509 106.857 230.796 128.144 257.055 128.144Z"/><path fill="url(#paint6_linear)" d="M407.592 239.954C433.851 239.954 455.138 218.667 455.138 192.408C455.138 166.149 433.851 144.862 407.592 144.862C381.333 144.862 360.046 166.149 360.046 192.408C360.046 218.667 381.333 239.954 407.592 239.954Z"/><path fill="#fff" d="M106.979 215.721H75.8435C74.0797 215.721 72.6227 214.34 72.4693 212.577L69.4018 170.935C69.2484 169.018 70.7822 167.331 72.776 167.331H109.969C111.886 167.331 113.497 169.018 113.344 170.935L110.276 212.577C110.199 214.34 108.742 215.721 106.979 215.721Z"/><path fill="url(#paint7_linear)" d="M91.411 209.202C90.3374 209.202 89.4171 208.282 89.4171 207.209V177.531C89.4171 176.457 90.3374 175.537 91.411 175.537C92.4846 175.537 93.4048 176.457 93.4048 177.531V207.209C93.4048 208.359 92.5613 209.202 91.411 209.202Z"/><path fill="url(#paint8_linear)" d="M100.23 209.202C99.1564 209.202 98.2362 208.282 98.2362 207.209V177.531C98.2362 176.457 99.1564 175.537 100.23 175.537C101.304 175.537 102.224 176.457 102.224 177.531V207.209C102.224 208.359 101.304 209.202 100.23 209.202Z"/><path fill="url(#paint9_linear)" d="M82.6687 209.202C81.5951 209.202 80.6748 208.282 80.6748 207.209V177.531C80.6748 176.457 81.5951 175.537 82.6687 175.537C83.7423 175.537 84.6626 176.457 84.6626 177.531V207.209C84.5859 208.359 83.7423 209.202 82.6687 209.202Z"/><path fill="#fff" d="M114.877 164.877H69.0951C67.9448 164.877 67.0245 163.957 67.0245 162.807V159.739C67.0245 158.589 67.9448 157.669 69.0951 157.669H114.877C116.028 157.669 116.948 158.589 116.948 159.739V162.807C116.948 163.957 116.028 164.877 114.877 164.877Z"/><path fill="#fff" d="M98.0829 161.273H84.7393C84.1258 161.273 83.589 160.736 83.589 160.123V155.215C83.589 154.601 84.1258 154.064 84.7393 154.064H98.0829C98.6963 154.064 99.2332 154.601 99.2332 155.215V160.123C99.2332 160.736 98.773 161.273 98.0829 161.273Z"/><path fill="#fff" d="M414.264 230.751L371.779 207.975C371.012 207.592 370.706 206.595 371.166 205.828L382.132 185.353C382.515 184.586 383.512 184.279 384.279 184.739L426.764 207.515C427.531 207.899 427.837 208.896 427.377 209.663L416.411 230.138C416.028 230.905 415.031 231.212 414.264 230.751Z"/><path fill="url(#paint10_linear)" d="M381.595 190.491C381.902 190.644 382.055 191.028 381.902 191.411L372.086 209.739C371.932 210.046 371.549 210.199 371.166 210.046C370.859 209.893 370.706 209.509 370.859 209.126L380.675 190.798C380.828 190.414 381.288 190.261 381.595 190.491Z"/><path fill="url(#paint11_linear)" d="M383.896 191.718C384.202 191.871 384.356 192.255 384.202 192.638L374.386 210.966C374.233 211.273 373.85 211.426 373.466 211.273C373.159 211.12 373.006 210.736 373.159 210.353L382.975 192.024C383.206 191.641 383.589 191.564 383.896 191.718Z"/><path fill="url(#paint12_linear)" d="M386.273 192.945C386.58 193.098 386.733 193.482 386.58 193.865L376.764 212.193C376.61 212.5 376.227 212.653 375.844 212.5C375.537 212.347 375.383 211.963 375.537 211.58L385.353 193.251C385.506 192.945 385.89 192.791 386.273 192.945Z"/><path fill="url(#paint13_linear)" d="M388.574 194.248C388.88 194.402 389.034 194.785 388.88 195.169L379.064 213.497C378.911 213.804 378.528 213.957 378.144 213.804C377.838 213.65 377.684 213.267 377.838 212.883L387.653 194.555C387.807 194.172 388.267 194.018 388.574 194.248Z"/><path fill="url(#paint14_linear)" d="M390.874 195.475C391.181 195.629 391.334 196.012 391.181 196.396L381.288 214.724C381.135 215.031 380.752 215.184 380.368 215.031C380.061 214.877 379.908 214.494 380.061 214.11L389.877 195.782C390.184 195.399 390.567 195.322 390.874 195.475Z"/><path fill="url(#paint15_linear)" d="M393.251 196.702C393.558 196.856 393.712 197.239 393.558 197.623L383.742 215.951C383.589 216.258 383.206 216.411 382.822 216.258C382.515 216.104 382.362 215.721 382.515 215.337L392.331 197.009C392.485 196.626 392.868 196.549 393.251 196.702Z"/><path fill="url(#paint16_linear)" d="M395.552 197.929C395.859 198.083 396.012 198.466 395.859 198.85L386.043 217.178C385.89 217.485 385.506 217.638 385.123 217.485C384.816 217.331 384.663 216.948 384.816 216.564L394.632 198.236C394.862 197.929 395.245 197.776 395.552 197.929Z"/><path fill="url(#paint17_linear)" d="M397.853 199.233C398.16 199.386 398.313 199.77 398.16 200.153L388.344 218.482C388.19 218.788 387.807 218.942 387.423 218.788C387.117 218.635 386.963 218.251 387.117 217.868L396.933 199.54C397.163 199.156 397.546 199.003 397.853 199.233Z"/><path fill="url(#paint18_linear)" d="M400.23 200.46C400.537 200.614 400.69 200.997 400.537 201.38L390.721 219.709C390.568 220.015 390.184 220.169 389.801 220.015C389.494 219.862 389.341 219.479 389.494 219.095L399.31 200.767C399.463 200.383 399.847 200.307 400.23 200.46Z"/><path fill="url(#paint19_linear)" d="M402.531 201.687C402.837 201.84 402.991 202.224 402.837 202.607L393.021 220.936C392.868 221.242 392.485 221.396 392.101 221.242C391.794 221.089 391.641 220.705 391.794 220.322L401.61 201.994C401.84 201.61 402.224 201.534 402.531 201.687Z"/><path fill="url(#paint20_linear)" d="M404.831 202.914C405.138 203.068 405.291 203.451 405.138 203.834L395.322 222.163C395.169 222.469 394.785 222.623 394.402 222.469C394.095 222.316 393.942 221.933 394.095 221.549L403.911 203.221C404.141 202.914 404.525 202.761 404.831 202.914Z"/><path fill="url(#paint21_linear)" d="M407.209 204.218C407.515 204.371 407.669 204.755 407.515 205.138L397.699 223.466C397.546 223.773 397.163 223.926 396.779 223.773C396.472 223.62 396.319 223.236 396.472 222.853L406.288 204.525C406.442 204.141 406.902 203.988 407.209 204.218Z"/><path fill="url(#paint22_linear)" d="M409.509 205.445C409.816 205.598 409.969 205.982 409.816 206.365L399.923 224.693C399.77 225 399.386 225.153 399.003 225C398.696 224.847 398.543 224.463 398.696 224.08L408.512 205.752C408.819 205.368 409.202 205.291 409.509 205.445Z"/><path fill="url(#paint23_linear)" d="M411.81 206.672C412.117 206.825 412.27 207.209 412.117 207.592L402.301 225.92C402.147 226.227 401.764 226.38 401.38 226.227C401.074 226.074 400.92 225.69 401.074 225.307L410.89 206.979C411.12 206.595 411.503 206.518 411.81 206.672Z"/><path fill="url(#paint24_linear)" d="M414.187 207.899C414.494 208.052 414.647 208.436 414.494 208.819L404.678 227.147C404.525 227.454 404.141 227.607 403.758 227.454C403.451 227.301 403.298 226.917 403.451 226.534L413.267 208.205C413.42 207.899 413.88 207.745 414.187 207.899Z"/><path fill="url(#paint25_linear)" d="M416.488 209.202C416.794 209.356 416.948 209.739 416.794 210.123L406.979 228.451C406.825 228.758 406.442 228.911 406.058 228.758C405.752 228.604 405.598 228.221 405.752 227.837L415.567 209.509C415.798 209.126 416.181 208.972 416.488 209.202Z"/><path fill="url(#paint26_linear)" d="M418.788 210.429C419.095 210.583 419.248 210.966 419.095 211.35L409.279 229.678C409.126 229.985 408.742 230.138 408.359 229.985C408.052 229.831 407.899 229.448 408.052 229.064L417.868 210.736C418.098 210.353 418.482 210.276 418.788 210.429Z"/><path fill="url(#paint27_linear)" d="M421.166 211.656C421.472 211.81 421.626 212.193 421.472 212.577L411.656 230.905C411.503 231.212 411.12 231.365 410.736 231.212C410.429 231.058 410.276 230.675 410.429 230.291L420.245 211.963C420.399 211.58 420.859 211.503 421.166 211.656Z"/><path fill="url(#paint28_linear)" d="M423.466 212.883C423.773 213.037 423.926 213.42 423.773 213.804L413.957 232.132C413.804 232.439 413.42 232.592 413.037 232.439C412.73 232.285 412.577 231.902 412.73 231.518L422.546 213.19C422.776 212.883 423.16 212.73 423.466 212.883Z"/><path fill="#fff" d="M427.761 206.825L385.429 184.126C384.202 183.436 383.742 181.902 384.356 180.675C385.046 179.448 386.58 178.988 387.807 179.601L430.138 202.301C431.365 202.991 431.825 204.525 431.212 205.752C430.522 207.055 428.988 207.515 427.761 206.825Z"/><path fill="#fff" d="M426.84 157.745C427.837 158.282 428.144 159.433 427.684 160.429L410.506 192.485C409.969 193.482 408.819 193.788 407.822 193.328C406.825 192.791 406.518 191.641 406.979 190.644L424.156 158.666C424.617 157.669 425.844 157.285 426.84 157.745Z"/><path fill="#fff" d="M273.543 106.518H238.727C235.89 106.518 233.512 104.218 233.512 101.304V75.7669C233.512 72.9294 235.813 70.5521 238.727 70.5521H273.543C276.38 70.5521 278.758 72.8527 278.758 75.7669V101.304C278.758 104.218 276.457 106.518 273.543 106.518Z"/><path fill="#fff" d="M256.442 88.3435C246.779 88.3435 238.957 79.6779 238.957 69.0184C238.957 58.3589 246.779 49.6932 256.442 49.6932C266.104 49.6932 273.926 58.3589 273.926 69.0184C273.926 79.6779 266.028 88.3435 256.442 88.3435ZM256.442 52.3773C248.236 52.3773 241.564 59.8159 241.564 69.0184C241.564 78.2208 248.236 85.6595 256.365 85.6595C264.571 85.6595 271.166 78.2208 271.166 69.0184C271.166 59.8159 264.571 52.3773 256.442 52.3773Z"/><path fill="url(#paint29_linear)" d="M278.758 67.868H233.589V70.6288H278.758V67.868Z"/><path fill="url(#paint30_linear)" d="M260.583 85.8895C260.583 83.4355 258.589 81.4417 256.135 81.4417C253.681 81.4417 251.687 83.4355 251.687 85.8895C251.687 87.5766 252.684 89.0337 254.064 89.8006V97.4693H258.205V89.8006C259.586 89.0337 260.583 87.5766 260.583 85.8895Z"/><defs><linearGradient id="paint0_linear" x1="252.837" x2="252.837" y1="96.089" y2="466.948" gradientUnits="userSpaceOnUse"><stop stop-color="#2D93FC"/><stop offset="1" stop-color="#5147FB"/></linearGradient><linearGradient id="paint1_linear" x1="252.837" x2="252.837" y1="115.414" y2="447.623" gradientUnits="userSpaceOnUse"><stop stop-color="#2D93FC"/><stop offset="1" stop-color="#5147FB"/></linearGradient><linearGradient id="paint2_linear" x1="180.522" x2="180.522" y1="259.126" y2="466.948" gradientUnits="userSpaceOnUse"><stop stop-color="#2D93FC"/><stop offset="1" stop-color="#5147FB"/></linearGradient><linearGradient id="paint3_linear" x1="259.586" x2="259.586" y1="282.3" y2="469.723" gradientUnits="userSpaceOnUse"><stop stop-color="#0E51A7"/><stop offset="1" stop-color="#273B97"/></linearGradient><linearGradient id="paint4_linear" x1="92.408" x2="92.408" y1="136.043" y2="231.135" gradientUnits="userSpaceOnUse"><stop stop-color="#2D93FC"/><stop offset="1" stop-color="#5147FB"/></linearGradient><linearGradient id="paint5_linear" x1="257.055" x2="257.055" y1="33.052" y2="128.144" gradientUnits="userSpaceOnUse"><stop stop-color="#2D93FC"/><stop offset="1" stop-color="#5147FB"/></linearGradient><linearGradient id="paint6_linear" x1="407.592" x2="407.592" y1="144.862" y2="239.954" gradientUnits="userSpaceOnUse"><stop stop-color="#2D93FC"/><stop offset="1" stop-color="#5147FB"/></linearGradient><linearGradient id="paint7_linear" x1="91.411" x2="91.411" y1="175.537" y2="209.202" gradientUnits="userSpaceOnUse"><stop stop-color="#2D93FC"/><stop offset="1" stop-color="#5147FB"/></linearGradient><linearGradient id="paint8_linear" x1="100.23" x2="100.23" y1="175.537" y2="209.202" gradientUnits="userSpaceOnUse"><stop stop-color="#2D93FC"/><stop offset="1" stop-color="#5147FB"/></linearGradient><linearGradient id="paint9_linear" x1="82.669" x2="82.669" y1="175.537" y2="209.202" gradientUnits="userSpaceOnUse"><stop stop-color="#2D93FC"/><stop offset="1" stop-color="#5147FB"/></linearGradient><linearGradient id="paint10_linear" x1="376.38" x2="376.38" y1="190.383" y2="210.106" gradientUnits="userSpaceOnUse"><stop stop-color="#2D93FC"/><stop offset="1" stop-color="#5147FB"/></linearGradient><linearGradient id="paint11_linear" x1="378.681" x2="378.681" y1="191.643" y2="211.333" gradientUnits="userSpaceOnUse"><stop stop-color="#2D93FC"/><stop offset="1" stop-color="#5147FB"/></linearGradient><linearGradient id="paint12_linear" x1="381.058" x2="381.058" y1="192.885" y2="212.56" gradientUnits="userSpaceOnUse"><stop stop-color="#2D93FC"/><stop offset="1" stop-color="#5147FB"/></linearGradient><linearGradient id="paint13_linear" x1="383.359" x2="383.359" y1="194.14" y2="213.864" gradientUnits="userSpaceOnUse"><stop stop-color="#2D93FC"/><stop offset="1" stop-color="#5147FB"/></linearGradient><linearGradient id="paint14_linear" x1="385.621" x2="385.621" y1="195.401" y2="215.091" gradientUnits="userSpaceOnUse"><stop stop-color="#2D93FC"/><stop offset="1" stop-color="#5147FB"/></linearGradient><linearGradient id="paint15_linear" x1="388.037" x2="388.037" y1="196.628" y2="216.318" gradientUnits="userSpaceOnUse"><stop stop-color="#2D93FC"/><stop offset="1" stop-color="#5147FB"/></linearGradient><linearGradient id="paint16_linear" x1="390.338" x2="390.338" y1="197.87" y2="217.544" gradientUnits="userSpaceOnUse"><stop stop-color="#2D93FC"/><stop offset="1" stop-color="#5147FB"/></linearGradient><linearGradient id="paint17_linear" x1="392.638" x2="392.638" y1="199.125" y2="218.848" gradientUnits="userSpaceOnUse"><stop stop-color="#2D93FC"/><stop offset="1" stop-color="#5147FB"/></linearGradient><linearGradient id="paint18_linear" x1="395.015" x2="395.015" y1="200.386" y2="220.075" gradientUnits="userSpaceOnUse"><stop stop-color="#2D93FC"/><stop offset="1" stop-color="#5147FB"/></linearGradient><linearGradient id="paint19_linear" x1="397.316" x2="397.316" y1="201.613" y2="221.302" gradientUnits="userSpaceOnUse"><stop stop-color="#2D93FC"/><stop offset="1" stop-color="#5147FB"/></linearGradient><linearGradient id="paint20_linear" x1="399.617" x2="399.617" y1="202.854" y2="222.529" gradientUnits="userSpaceOnUse"><stop stop-color="#2D93FC"/><stop offset="1" stop-color="#5147FB"/></linearGradient><linearGradient id="paint21_linear" x1="401.994" x2="401.994" y1="204.11" y2="223.833" gradientUnits="userSpaceOnUse"><stop stop-color="#2D93FC"/><stop offset="1" stop-color="#5147FB"/></linearGradient><linearGradient id="paint22_linear" x1="404.256" x2="404.256" y1="205.37" y2="225.06" gradientUnits="userSpaceOnUse"><stop stop-color="#2D93FC"/><stop offset="1" stop-color="#5147FB"/></linearGradient><linearGradient id="paint23_linear" x1="406.595" x2="406.595" y1="206.597" y2="226.287" gradientUnits="userSpaceOnUse"><stop stop-color="#2D93FC"/><stop offset="1" stop-color="#5147FB"/></linearGradient><linearGradient id="paint24_linear" x1="408.972" x2="408.972" y1="207.839" y2="227.514" gradientUnits="userSpaceOnUse"><stop stop-color="#2D93FC"/><stop offset="1" stop-color="#5147FB"/></linearGradient><linearGradient id="paint25_linear" x1="411.273" x2="411.273" y1="209.094" y2="228.817" gradientUnits="userSpaceOnUse"><stop stop-color="#2D93FC"/><stop offset="1" stop-color="#5147FB"/></linearGradient><linearGradient id="paint26_linear" x1="413.574" x2="413.574" y1="210.355" y2="230.045" gradientUnits="userSpaceOnUse"><stop stop-color="#2D93FC"/><stop offset="1" stop-color="#5147FB"/></linearGradient><linearGradient id="paint27_linear" x1="415.951" x2="415.951" y1="211.582" y2="231.271" gradientUnits="userSpaceOnUse"><stop stop-color="#2D93FC"/><stop offset="1" stop-color="#5147FB"/></linearGradient><linearGradient id="paint28_linear" x1="418.252" x2="418.252" y1="212.824" y2="232.498" gradientUnits="userSpaceOnUse"><stop stop-color="#2D93FC"/><stop offset="1" stop-color="#5147FB"/></linearGradient><linearGradient id="paint29_linear" x1="256.173" x2="256.173" y1="67.868" y2="70.629" gradientUnits="userSpaceOnUse"><stop stop-color="#2D93FC"/><stop offset="1" stop-color="#5147FB"/></linearGradient><linearGradient id="paint30_linear" x1="256.135" x2="256.135" y1="81.442" y2="97.469" gradientUnits="userSpaceOnUse"><stop stop-color="#2D93FC"/><stop offset="1" stop-color="#5147FB"/></linearGradient></defs></svg>